<?xml version="1.0" encoding="iso-8859-1"?>
<!-- Generator: Adobe Illustrator 16.0.0, SVG Export Plug-In . SVG Version: 6.00 Build 0)  -->
<!DOCTYPE svg PUBLIC "-//W3C//DTD SVG 1.1//EN" "http://www.w3.org/Graphics/SVG/1.1/DTD/svg11.dtd">
<svg version="1.1" id="Capa_1" xmlns="http://www.w3.org/2000/svg" xmlns:xlink="http://www.w3.org/1999/xlink" x="0px" y="0px"
	 width="198.333px" height="198.333px" viewBox="0 0 198.333 198.333" style="enable-background:new 0 0 198.333 198.333;"
	 xml:space="preserve">
<g>
	<g>
		<ellipse cx="99.118" cy="35.599" rx="15.042" ry="14.844"/>
		<path d="M131.297,4.025c-0.74-2.869-3.671-4.593-6.534-3.854c-2.868,0.742-4.592,3.672-3.852,6.541
			c2.5,9.738,5.938,35.364-5.014,45.926H82.437C71.486,42.076,74.921,16.45,77.42,6.712c0.744-2.869-0.981-5.796-3.849-6.538
			c-2.864-0.74-5.796,0.982-6.535,3.851C66.553,5.901,55.468,50.158,80.342,64.35c0.293,0.167,0.924,0.471,0.924,0.471
			l-0.139,125.467c0,4.442,3.58,8.045,8.024,8.045c4.443,0,8.024-3.603,8.024-8.045v-60.8h3.844v60.8
			c0,4.442,3.631,8.045,8.074,8.045c4.441,0,8.07-3.603,8.07-8.045l-0.098-125.467c0,0,0.633-0.304,0.926-0.472
			C142.866,50.157,131.78,5.9,131.297,4.025z"/>
	</g>
</g>
<g>
</g>
<g>
</g>
<g>
</g>
<g>
</g>
<g>
</g>
<g>
</g>
<g>
</g>
<g>
</g>
<g>
</g>
<g>
</g>
<g>
</g>
<g>
</g>
<g>
</g>
<g>
</g>
<g>
</g>
</svg>
